<mxfile host="app.diagrams.net" modified="2023-10-11T18:05:15.801Z" agent="Mozilla/5.0 (Windows NT 10.0; Win64; x64) AppleWebKit/537.36 (KHTML, like Gecko) Chrome/117.0.0.0 Safari/537.36" etag="z5QrO3y4JwV2IFZtPjbD" version="22.0.4" type="github">
  <diagram name="PÃ¡gina-1" id="3APL-EhLfqI_c8DU-j9m">
    <mxGraphModel dx="970" dy="988" grid="1" gridSize="10" guides="1" tooltips="1" connect="1" arrows="1" fold="1" page="1" pageScale="1" pageWidth="827" pageHeight="1169" math="0" shadow="0">
      <root>
        <mxCell id="0" />
        <mxCell id="1" parent="0" />
        <mxCell id="TnqGNeqfXmBI5LtHcGrF-1" value="" style="fontColor=#0066CC;verticalAlign=top;verticalLabelPosition=bottom;labelPosition=center;align=center;html=1;outlineConnect=0;fillColor=#CCCCCC;strokeColor=#6881B3;gradientColor=none;gradientDirection=north;strokeWidth=2;shape=mxgraph.networks.pc;" vertex="1" parent="1">
          <mxGeometry x="364" y="450" width="100" height="70" as="geometry" />
        </mxCell>
        <mxCell id="TnqGNeqfXmBI5LtHcGrF-2" value="" style="image;aspect=fixed;perimeter=ellipsePerimeter;html=1;align=center;shadow=0;dashed=0;spacingTop=3;image=img/lib/active_directory/windows_server.svg;" vertex="1" parent="1">
          <mxGeometry x="630" y="203.41" width="101" height="123.17" as="geometry" />
        </mxCell>
        <mxCell id="TnqGNeqfXmBI5LtHcGrF-3" value="" style="image;html=1;image=img/lib/clip_art/networking/Firewall-page1_128x128.png" vertex="1" parent="1">
          <mxGeometry x="380" y="220" width="100" height="90" as="geometry" />
        </mxCell>
        <mxCell id="TnqGNeqfXmBI5LtHcGrF-4" value="" style="endArrow=none;html=1;rounded=0;" edge="1" parent="1">
          <mxGeometry width="50" height="50" relative="1" as="geometry">
            <mxPoint x="410" y="440" as="sourcePoint" />
            <mxPoint x="410" y="320" as="targetPoint" />
          </mxGeometry>
        </mxCell>
        <mxCell id="TnqGNeqfXmBI5LtHcGrF-5" value="" style="endArrow=none;html=1;rounded=0;" edge="1" parent="1">
          <mxGeometry width="50" height="50" relative="1" as="geometry">
            <mxPoint x="490" y="270" as="sourcePoint" />
            <mxPoint x="620" y="270" as="targetPoint" />
          </mxGeometry>
        </mxCell>
        <mxCell id="TnqGNeqfXmBI5LtHcGrF-6" value="Windows 10" style="text;html=1;align=center;verticalAlign=middle;resizable=0;points=[];autosize=1;strokeColor=none;fillColor=none;" vertex="1" parent="1">
          <mxGeometry x="369" y="540" width="90" height="30" as="geometry" />
        </mxCell>
        <mxCell id="TnqGNeqfXmBI5LtHcGrF-7" value="IP: 192.168.1.101" style="text;html=1;align=center;verticalAlign=middle;resizable=0;points=[];autosize=1;strokeColor=none;fillColor=none;" vertex="1" parent="1">
          <mxGeometry x="240" y="470" width="120" height="30" as="geometry" />
        </mxCell>
        <mxCell id="TnqGNeqfXmBI5LtHcGrF-8" value="Name: DESKTOP-J18VVBS" style="text;html=1;align=center;verticalAlign=middle;resizable=0;points=[];autosize=1;strokeColor=none;fillColor=none;" vertex="1" parent="1">
          <mxGeometry x="459" y="470" width="170" height="30" as="geometry" />
        </mxCell>
        <mxCell id="TnqGNeqfXmBI5LtHcGrF-9" value="pFsEnce 2.7.0" style="text;html=1;align=center;verticalAlign=middle;resizable=0;points=[];autosize=1;strokeColor=none;fillColor=none;" vertex="1" parent="1">
          <mxGeometry x="364" y="190" width="100" height="30" as="geometry" />
        </mxCell>
        <mxCell id="TnqGNeqfXmBI5LtHcGrF-10" value="WAN: 10.0.2.9/24" style="text;html=1;align=center;verticalAlign=middle;resizable=0;points=[];autosize=1;strokeColor=none;fillColor=none;" vertex="1" parent="1">
          <mxGeometry x="270" y="230" width="120" height="30" as="geometry" />
        </mxCell>
        <mxCell id="TnqGNeqfXmBI5LtHcGrF-11" value="IP: 192.168.1.1/24" style="text;html=1;align=center;verticalAlign=middle;resizable=0;points=[];autosize=1;strokeColor=none;fillColor=none;" vertex="1" parent="1">
          <mxGeometry x="270" y="260" width="120" height="30" as="geometry" />
        </mxCell>
        <mxCell id="TnqGNeqfXmBI5LtHcGrF-12" value="Windows Server 2019" style="text;html=1;align=center;verticalAlign=middle;resizable=0;points=[];autosize=1;strokeColor=none;fillColor=none;" vertex="1" parent="1">
          <mxGeometry x="630" y="160" width="140" height="30" as="geometry" />
        </mxCell>
        <mxCell id="TnqGNeqfXmBI5LtHcGrF-13" value="Name: WIN-5173N594LD9" style="text;html=1;align=center;verticalAlign=middle;resizable=0;points=[];autosize=1;strokeColor=none;fillColor=none;" vertex="1" parent="1">
          <mxGeometry x="600" y="326.58" width="170" height="30" as="geometry" />
        </mxCell>
        <mxCell id="TnqGNeqfXmBI5LtHcGrF-14" value="IP: 192.168.1.2" style="text;html=1;align=center;verticalAlign=middle;resizable=0;points=[];autosize=1;strokeColor=none;fillColor=none;" vertex="1" parent="1">
          <mxGeometry x="635" y="356.58" width="100" height="30" as="geometry" />
        </mxCell>
      </root>
    </mxGraphModel>
  </diagram>
</mxfile>
